<?xml version="1.0" encoding="UTF-8"?><svg id="a" xmlns="http://www.w3.org/2000/svg" viewBox="0 0 86 32"><defs><style>.b{fill:#e10098;}</style></defs><path class="b" d="M22.4866,11.2114c0-1.1131-.9024-2.0155-2.0155-2.0155-.5724,0-1.088,.2398-1.4549,.623l-4.6616-2.6913c.0522-.1792,.0815-.3681,.0815-.5641,0-1.1131-.9024-2.0155-2.0155-2.0155s-2.0155,.9024-2.0155,2.0155c0,.196,.0294,.3849,.0815,.5641l-4.6623,2.6918c-.3669-.3835-.8826-.6234-1.4552-.6234-1.1131,0-2.0155,.9024-2.0155,2.0155,0,.9484,.6559,1.7415,1.5382,1.9562v5.3833c-.8823,.2147-1.5382,1.0079-1.5382,1.9563,0,1.1131,.9024,2.0155,2.0155,2.0155,.5727,0,1.0884-.24,1.4553-.6235l4.6623,2.6918c-.0522,.1792-.0816,.3681-.0816,.5641,0,1.1131,.9024,2.0155,2.0155,2.0155s2.0155-.9024,2.0155-2.0155c0-.196-.0294-.3849-.0816-.5641l4.6615-2.6913c.3669,.3833,.8824,.623,1.4549,.623,1.1131,0,2.0155-.9024,2.0155-2.0155,0-.948-.6553-1.7409-1.537-1.956v-5.3838c.8817-.2151,1.537-1.008,1.537-1.956ZM4.8488,18.5515v-5.3844c.8811-.2155,1.5359-1.0081,1.5359-1.9557,0-.1958-.0293-.3845-.0814-.5635l4.6625-2.6919c.0204,.0213,.0411,.042,.0624,.0624l-6.094,10.5551c-.0281-.0082-.0568-.015-.0854-.022Zm9.0268,5.2111c-.3669-.3832-.8824-.623-1.4549-.623s-1.088,.2398-1.4549,.623l-4.6625-2.6919c.0081-.028,.0149-.0565,.0219-.085h12.19c.007,.0287,.0138,.0574,.022,.0856l-4.6615,2.6913Zm4.6395-3.7339H6.3252c-.0923-.3785-.2904-.7148-.5627-.9757l6.0942-10.5555c.1792,.0522,.3681,.0816,.5641,.0816s.3849-.0294,.5641-.0816l6.0938,10.5548c-.2727,.261-.471,.5976-.5635,.9764Zm1.4775-1.4775c-.0287,.007-.0574,.0138-.0856,.022l-6.0938-10.5548c.0213-.0204,.042-.0411,.0624-.0624l4.6615,2.6913c-.0522,.1792-.0816,.3681-.0816,.5641,0,.948,.6553,1.7409,1.537,1.9559v5.3839Z"/><path class="b" d="M36.2576,15.3594h-3.0562c-.0953,0-.1714,.0333-.2285,.1-.0571,.0571-.0857,.1333-.0857,.2285v.2c0,.0952,.0286,.1761,.0857,.2428,.0571,.0571,.1332,.0857,.2285,.0857h2.4849v.7284c0,.9902-.2712,1.7377-.814,2.2423s-1.2568,.757-2.1423,.757-1.5852-.2428-2.0994-.7284c-.5048-.4856-.776-1.2425-.8142-2.2709-.0096-.2856-.0142-.7141-.0142-1.2854s.0046-.9998,.0142-1.2854c.0382-1.0283,.3094-1.7853,.8142-2.2709,.5142-.4856,1.2139-.7284,2.0994-.7284,.7808,0,1.3997,.1714,1.8567,.5142,.4666,.3428,.7808,.7665,.9426,1.2711,.0382,.1143,.0761,.1904,.1143,.2285s.1001,.0571,.1858,.0571h.314c.0859,0,.1572-.0238,.2143-.0714s.0857-.1095,.0857-.1857v-.0286c-.019-.3237-.1666-.6903-.4426-1.0997-.2667-.4189-.6762-.7808-1.2283-1.0854-.5523-.3047-1.2331-.457-2.0425-.457-1.1901,0-2.1138,.3428-2.7707,1.0283s-1.0045,1.6044-1.0425,2.7565c-.0096,.2856-.0144,.7379-.0144,1.3568s.0048,1.0712,.0144,1.3568c.0379,1.1521,.3855,2.0709,1.0425,2.7565s1.5806,1.0283,2.7707,1.0283c.7998,0,1.4901-.1619,2.071-.4856,.5807-.3237,1.0235-.776,1.3281-1.3568s.457-1.2521,.457-2.0138v-1.2568c0-.1047-.0286-.1857-.0857-.2428s-.138-.0857-.2429-.0857Z"/><path class="b" d="M41.9428,13.2314h-.5283c-.9522,0-1.5996,.3285-1.9424,.9855v-.657c0-.0952-.0334-.1714-.1001-.2285-.0571-.0667-.1332-.1-.2285-.1h-.2285c-.0951,0-.1714,.0333-.2285,.1-.0571,.0571-.0857,.1333-.0857,.2285v6.784c0,.0952,.0286,.1714,.0857,.2285s.1335,.0857,.2285,.0857h.2285c.0953,0,.1714-.0286,.2285-.0857,.0667-.0571,.1001-.1333,.1001-.2285v-4.4275c0-.5713,.1666-1.0236,.4998-1.3568,.3334-.3332,.7856-.4999,1.3569-.4999h.614c.0953,0,.1714-.0286,.2285-.0857s.0857-.1333,.0857-.2285v-.2c0-.0952-.0286-.1714-.0857-.2285s-.1332-.0857-.2285-.0857Z"/><path class="b" d="M46.0396,13.0885c-.5809,0-1.0711,.1047-1.471,.3142s-.6951,.457-.8855,.7427c-.1906,.2761-.2856,.5189-.2856,.7284,0,.0857,.0286,.1619,.0857,.2285,.0665,.0571,.1428,.0857,.2285,.0857h.2c.0857,0,.1522-.019,.2-.0571,.0571-.0476,.1047-.1285,.1428-.2428,.0857-.2666,.2808-.4951,.5855-.6855,.3142-.1904,.7141-.2856,1.1997-.2856,.657,0,1.1426,.1428,1.4568,.4285,.3238,.2761,.4856,.676,.4856,1.1997v.4999l-2.2566,.3142c-.8665,.1143-1.5566,.3713-2.0708,.7712-.5048,.3999-.7571,.9141-.7571,1.5425,0,.3904,.1143,.7474,.3428,1.0712,.2381,.3237,.5523,.5808,.9426,.7712s.8142,.2856,1.2712,.2856c.6664,0,1.1997-.1095,1.5996-.3285,.4093-.219,.7187-.4856,.9282-.7998v.6713c0,.0952,.0286,.1714,.0857,.2285s.1332,.0857,.2285,.0857h.2429c.0951,0,.1714-.0286,.2285-.0857s.0857-.1333,.0857-.2285v-4.756c0-.6951-.2143-1.2854-.6428-1.771s-1.1522-.7284-2.1709-.7284Zm1.9424,4.2275c0,.8569-.2237,1.5139-.6712,1.9709-.4477,.457-1.0189,.6855-1.7139,.6855-.4856,0-.9141-.119-1.2854-.3571-.362-.238-.5427-.576-.5427-1.014,0-.3904,.2-.7141,.5999-.9712s.9902-.438,1.771-.5427l1.8423-.2571v.4856Z"/><path class="b" d="M56.6674,14.074c-.4856-.657-1.2424-.9855-2.2708-.9855-1.0473,0-1.8471,.3761-2.3994,1.1283v-.6713c0-.0952-.0286-.1714-.0857-.2285s-.1332-.0857-.2285-.0857h-.2429c-.0951,0-.1714,.0286-.2285,.0857s-.0857,.1333-.0857,.2285v9.5119c0,.0952,.0286,.1714,.0857,.2285s.1334,.0857,.2285,.0857h.2429c.0953,0,.1714-.0286,.2285-.0857s.0857-.1333,.0857-.2285v-3.3849c.5617,.7522,1.3615,1.1283,2.3994,1.1283,1.0283,0,1.7852-.3237,2.2708-.9712,.4952-.657,.7571-1.4615,.7856-2.4137,.0096-.0952,.0142-.2523,.0142-.4713s-.0046-.3761-.0142-.4713c-.0286-.9521-.2904-1.752-.7856-2.3994Zm-.0857,3.2706c-.0286,.7712-.2237,1.4044-.5855,1.8995-.3524,.4856-.9141,.7284-1.6853,.7284-.5046,0-.9285-.119-1.2712-.3571s-.5999-.538-.7712-.8998c-.1714-.3713-.2617-.7617-.2712-1.1711l-.0144-.557,.0144-.557c.0286-.676,.2333-1.2616,.614-1.7567,.3809-.5046,.9474-.757,1.6997-.757,.838,0,1.4282,.2856,1.771,.8569,.3428,.5618,.5142,1.2854,.5142,2.1709,0,.1714-.0048,.3047-.0144,.3999Z"/><path class="b" d="M62.6954,13.0885c-.5809,0-1.0569,.0952-1.4282,.2856-.3617,.1904-.6855,.4713-.9712,.8426v-3.3849c0-.0952-.0286-.1714-.0857-.2285s-.1332-.0857-.2285-.0857h-.2429c-.0951,0-.1714,.0286-.2285,.0857s-.0857,.1333-.0857,.2285v9.5119c0,.0952,.0286,.1714,.0857,.2285s.1335,.0857,.2285,.0857h.2429c.0953,0,.1714-.0286,.2285-.0857s.0857-.1333,.0857-.2285v-3.9847c0-.7617,.2047-1.3568,.614-1.7853,.4095-.438,.957-.657,1.6426-.657,.7045,0,1.2424,.2142,1.6138,.6427,.3809,.4285,.5713,1.0283,.5713,1.7996v3.9847c0,.0952,.0286,.1714,.0857,.2285s.1335,.0857,.2285,.0857h.2429c.0953,0,.1714-.0286,.2285-.0857s.0857-.1333,.0857-.2285v-4.0561c0-.9426-.2523-1.7091-.7571-2.2994-.5046-.5999-1.2235-.8998-2.1565-.8998Z"/><path class="b" d="M74.1327,11.5175c-.6666-.6665-1.571-.9998-2.7136-.9998s-2.047,.3332-2.7136,.9998-1.0187,1.6472-1.0569,2.9421c-.0096,.2856-.0142,.6855-.0142,1.1997s.0046,.9141,.0142,1.1997c.0667,2.6279,1.3236,3.9419,3.7705,3.9419,.7616,0,1.4282-.1381,1.9995-.4142l.6284,.8712c.1618,.219,.3142,.3285,.457,.3285h.3142c.0761,0,.1428-.0286,.2-.0857s.0857-.1238,.0857-.2c0-.0476-.0142-.1-.0427-.1571l-.9141-1.2854c.6474-.6379,.995-1.6377,1.0425-2.9993,.019-.5713,.0286-.9712,.0286-1.1997s-.0096-.6284-.0286-1.1997c-.0382-1.2949-.3903-2.2756-1.0569-2.9421Zm.1572,5.2701c-.0382,1.0664-.3142,1.8614-.8284,2.3851-.5048,.5142-1.1855,.7712-2.0425,.7712s-1.5425-.2571-2.0566-.7712c-.5046-.5237-.776-1.3187-.814-2.3851-.0096-.2856-.0144-.6617-.0144-1.1283s.0048-.8426,.0144-1.1283c.0379-1.0664,.3142-1.8567,.8284-2.3708,.5142-.5237,1.1949-.7855,2.0422-.7855s1.5283,.2618,2.0425,.7855c.5142,.5142,.7902,1.3044,.8284,2.3708,.019,.5713,.0286,.9474,.0286,1.1283s-.0096,.557-.0286,1.1283Z"/><path class="b" d="M83.5606,19.8868c-.0571-.0571-.138-.0857-.2429-.0857h-4.9272V10.9748c0-.0952-.0286-.1714-.0857-.2285s-.1332-.0857-.2285-.0857h-.2715c-.0951,0-.1714,.0286-.2285,.0857s-.0857,.1333-.0857,.2285v9.3691c0,.0952,.0286,.1714,.0857,.2285s.1334,.0857,.2285,.0857h5.5129c.0953,0,.1714-.0286,.2285-.0857,.0667-.0571,.1001-.1333,.1001-.2285v-.2142c0-.1047-.0286-.1857-.0857-.2428Z"/></svg>