<?xml version="1.0" encoding="UTF-8"?><svg id="a" xmlns="http://www.w3.org/2000/svg" xmlns:xlink="http://www.w3.org/1999/xlink" viewBox="0 0 86 32"><defs><style>.d{fill:#57c4c4;}.e{fill:#3cbfbc;}.f{fill:#18bbb9;}.g{fill:#72c9c9;}.h{fill:#0fbab9;}.i{fill:#50c1c0;}.j{fill:#40bfbd;}.k{fill:#6cc9c9;}.l{fill:#60c6c5;}.m{fill:#2dbdbb;}.n{fill:#63c6c6;}.o{fill:#32bebb;}.p{fill:#47c1be;}.q{fill:#55c4c3;}.r{fill:#03b6b4;}.s{fill:#70caca;}.t{fill:#05b6b2;}.u{fill:#4cc2c0;}.v{fill:#75caca;}.w{fill:#52c3c2;}.x{fill:#00b0ac;}.y{fill:#58c4c3;}.a`{fill:#53c3c2;}.aa{fill:#00b7b6;}.ab{fill:#6dc9c8;}.ac{fill:#74cbca;}.ad{fill:#04b7b4;}.ae{fill:#00b2ae;}.af{fill:#00b1ae;}.ag{fill:#11bab7;}.ah{fill:#50c3c2;}.ai{fill:#2bbdba;}.aj{fill:#00b1ad;}.ak{fill:#4dc2c1;}.al{fill:#24bcbb;}.am{fill:#00b4b1;}.an{fill:#68c8c7;}.ao{fill:#41c0be;}.ap{clip-path:url(#b);}.aq{fill:#00b2af;}.ar{fill:#34bebd;}.as{fill:#69c8c7;}.at{fill:#43c0be;}.au{fill:#4cc1c0;}.av{clip-path:url(#c);}.aw{fill:#06b8b6;}.ax{fill:#60c6c6;}.ay{fill:#2fbebc;}.b`{fill:#39bfbc;}.ba{fill:#46c0be;}.bb{fill:#65c7c7;}.bc{fill:#67c7c7;}.bd{fill:#01b5b1;}.be{fill:#69c7c8;}.bf{fill:#00b6b5;}.bg{fill:none;}.bh{fill:#03bbb8;}.bi{fill:#6ec8c8;}.bj{fill:#21bcb9;}.bk{fill:#00afac;}.bl{fill:#5ac5c4;}.bm{fill:#64c7c7;}.bn{fill:#03b7b5;}.bo{fill:#00b3b0;}.bp{fill:#4bc2c0;}.bq{fill:#4bc0bf;}.br{fill:#5cc5c4;}.bs{fill:#6fcac8;}.bt{fill:#3bbfbd;}.bu{fill:#244b5a;}.bv{fill:#5fc6c5;}.bw{fill:#73cbca;}.bx{fill:#16bab9;}</style><clipPath id="b"><rect class="bg" x="19.228" y="9.4449" width="4.8568" height="4.8568" transform="translate(-2.0268 18.8791) rotate(-45.213)"/></clipPath><clipPath id="c"><rect class="bg" x="29.617" y="10.4084" width="2.8488" height="2.8488" transform="translate(.7755 25.5279) rotate(-45.213)"/></clipPath></defs><path class="bu" d="M23.7079,25.8482c.3679,.4895,.8461,.8854,1.3956,1.1555,.5943,.2944,1.2502,.4433,1.9134,.4343,.5362,.0141,1.07-.077,1.5713-.268,.4009-.1575,.7588-.4077,1.0444-.7302,.268-.3141,.4637-.6834,.5731-1.0815,.1193-.4303,.1784-.8751,.1755-1.3216v-1.5528h-.0369c-.3476,.5509-.8489,.9879-1.4421,1.2571-.5656,.2462-1.1762,.3721-1.7931,.3697-.6044,.0045-1.204-.1085-1.7653-.3327-.5315-.211-1.0178-.5216-1.4327-.9151-.4117-.3953-.7388-.8702-.9613-1.3959-.2368-.5549-.3563-1.1528-.3512-1.7561-.0051-.6015,.108-1.1982,.3329-1.7562,.2125-.5279,.523-1.0108,.915-1.4234,.3919-.4092,.8639-.7332,1.3865-.9521,.5592-.2325,1.1599-.3488,1.7654-.342,.2757,.0016,.5509,.0263,.8225,.0738,.2987,.0522,.5903,.1391,.8689,.2589,.6613,.2866,1.233,.7465,1.6546,1.3312h.0369v-1.4421h1.2202v8.5776c-.0042,.504-.0631,1.006-.1757,1.4973-.1178,.5312-.3513,1.0298-.6839,1.4603-.3785,.475-.8628,.8549-1.4142,1.1094-.604,.2956-1.3927,.4434-2.3663,.4434-.7908,.0135-1.5764-.131-2.3107-.4251-.7025-.301-1.3327-.7484-1.8484-1.3124l.9057-.9614Zm.2218-6.1742c-.0031,.4406,.0818,.8773,.2496,1.2847,.16,.3909,.3919,.7483,.6838,1.0536,.2902,.3026,.6352,.5473,1.0168,.721,.3975,.1807,.8297,.2721,1.2663,.268,.8647,.0031,1.6978-.3242,2.3292-.915,.3101-.2926,.5529-.649,.7118-1.0447,.1712-.4349,.2499-.9007,.2311-1.3677,.0031-.4381-.072-.8732-.2219-1.2849-.1424-.3913-.3625-.7497-.6471-1.0536-.2925-.3081-.6447-.5534-1.0352-.7209-.4323-.1838-.8983-.2751-1.368-.2681-.4366-.004-.8688,.0875-1.2663,.2681-.3814,.1739-.7265,.4185-1.0168,.7209-.2918,.3054-.5237,.6628-.6839,1.0536-.1677,.4075-.2526,.8443-.2495,1.2849Zm12.6443,4.4366h-1.3309V11.0223h4.0299c1.331,0,2.3816,.2896,3.1518,.8689,.7701,.5794,1.1553,1.4544,1.1555,2.6251,.0234,.8497-.2849,1.6752-.8596,2.3015-.5732,.6225-1.4019,.9829-2.4864,1.0814l3.7712,6.2114h-1.6269l-3.5861-6.0819h-2.2184v6.082Zm-.0001-7.3021h2.3663c.5084,.0107,1.0158-.0516,1.5066-.1849,.3589-.096,.6952-.2625,.9891-.4898,.2371-.1908,.4216-.4389,.536-.7209,.1125-.2855,.169-.5899,.1664-.8967,.0014-.3006-.0551-.5987-.1664-.878-.1158-.2839-.2999-.5347-.536-.7303-.2911-.2318-.6283-.3988-.9891-.4899-.4919-.1266-.9987-.1857-1.5066-.1755h-2.3663v4.5661Zm9.7235-5.7862h3.8083c1.3309,0,2.3815,.2897,3.1517,.869,.7701,.5794,1.1553,1.4544,1.1555,2.6251,0,1.171-.3852,2.049-1.1555,2.6342-.7702,.5855-1.8208,.8782-3.1517,.8781h-2.4771v6.082h-1.3311V11.0223Zm1.3313,5.7864h2.1444c.5084,.0107,1.0158-.0516,1.5066-.1849,.3589-.096,.6951-.2625,.9891-.4898,.2371-.1908,.4215-.4389,.536-.7209,.1125-.2855,.169-.5899,.1664-.8967,.0014-.3006-.0551-.5987-.1664-.878-.1158-.2839-.2999-.5347-.536-.7303-.2911-.2318-.6283-.3988-.9891-.4899-.4919-.1266-.9987-.1857-1.5066-.1755h-2.1445v4.5661Zm20.1493,5.2315c-.2342,.347-.5104,.6637-.8224,.9428-.3377,.3034-.7138,.5613-1.1185,.767-.4321,.2206-.8879,.3912-1.3586,.5085-.505,.1253-1.0235,.1874-1.5438,.1848-.928,.0087-1.8486-.1672-2.708-.5175-1.6391-.6624-2.9375-1.9641-3.5956-3.6049-.3522-.8751-.5281-1.8112-.5175-2.7545-.0105-.9433,.1653-1.8794,.5175-2.7545,.6581-1.6407,1.9565-2.9424,3.5956-3.6046,.8594-.3504,1.78-.5263,2.708-.5176,.8365,.0045,1.6645,.1675,2.4403,.4805,.8274,.3311,1.5493,.8806,2.0888,1.5899l-1.1645,.8689c-.1564-.233-.343-.4444-.5548-.6286-.2446-.2166-.5145-.4028-.8039-.5545-.3092-.1628-.6345-.2929-.9707-.3882-.3365-.0974-.685-.1472-1.0353-.1479-.7765-.0127-1.5463,.145-2.2552,.4622-.6431,.2918-1.219,.7134-1.6914,1.2384-.4675,.5265-.8286,1.1387-1.0631,1.8026-.4929,1.3934-.4929,2.9137,0,4.307,.2345,.6639,.5956,1.276,1.0631,1.8024,.4722,.5252,1.0481,.9469,1.6914,1.2386,.7088,.3174,1.4787,.4752,2.2552,.4623,.3441,.0001,.6875-.0308,1.026-.0925,.3444-.0633,.6797-.1689,.9983-.3142,.3358-.154,.6473-.3565,.9243-.601,.3113-.278,.5819-.5984,.804-.9518l1.0906,.7764Z"/><g class="ap"><g><path class="v" d="M18.2828,8.439l-.0607,.5378v-.5378h.0607Z"/><path class="ac" d="M18.3632,8.439l-.1411,1.2485v-.7106l.0607-.5378h.0804Z"/><path class="ac" d="M18.4434,8.439l-.2214,1.959v-.7105l.1411-1.2485h.0803Z"/><path class="bw" d="M18.5237,8.439l-.3016,2.6696v-.7106l.2214-1.959h.0803Z"/><path class="bw" d="M18.6039,8.439l-.3819,3.3803v-.7106l.3016-2.6696h.0803Z"/><path class="g" d="M18.6843,8.439l-.4623,4.0909v-.7106l.3819-3.3803h.0804Zm.0803,0l-.5426,4.8014v-.7105l.4623-4.0909h.0803Z"/><path class="s" d="M18.8448,8.439l-.6228,5.5121v-.7106l.5426-4.8014h.0803Z"/><path class="s" d="M18.9251,8.439l-.7031,6.2227v-.7106l.6228-5.5121h.0803Z"/><path class="bs" d="M19.0055,8.439l-.7756,6.8643-.0078-.0009v-.6407l.7031-6.2227h.0804Z"/><path class="bi" d="M19.0857,8.439l-.7761,6.8685h-.0425l-.0372-.0042,.7756-6.8643h.0803Z"/><path class="bi" d="M19.166,8.439l-.776,6.8685h-.0804l.7761-6.8685h.0803Z"/><path class="k" d="M19.2464,8.439l-.7761,6.8685h-.0803l.776-6.8685h.0804Z"/><path class="ab" d="M19.3267,8.439l-.7761,6.8685h-.0803l.7761-6.8685h.0803Z"/><path class="be" d="M19.4069,8.439l-.776,6.8685h-.0804l.7761-6.8685h.0803Z"/><path class="be" d="M19.4872,8.439l-.776,6.8685h-.0803l.776-6.8685h.0803Z"/><path class="as" d="M19.5676,8.439l-.7761,6.8685h-.0803l.776-6.8685h.0804Z"/><path class="an" d="M19.6478,8.439l-.7761,6.8685h-.0803l.7761-6.8685h.0803Z"/><path class="bc" d="M19.7281,8.439l-.776,6.8685h-.0804l.7761-6.8685h.0803Z"/><path class="bb" d="M19.8083,8.439l-.776,6.8685h-.0803l.776-6.8685h.0803Z"/><path class="bm" d="M19.8887,8.439l-.7761,6.8685h-.0803l.776-6.8685h.0804Z"/><path class="n" d="M19.969,8.439l-.7761,6.8685h-.0803l.7761-6.8685h.0803Z"/><path class="ax" d="M20.0492,8.439l-.776,6.8685h-.0804l.7761-6.8685h.0803Z"/><path class="l" d="M20.1295,8.439l-.776,6.8685h-.0803l.776-6.8685h.0803Z"/><path class="bv" d="M20.2099,8.439l-.7761,6.8685h-.0803l.776-6.8685h.0804Z"/><path class="br" d="M20.2902,8.439l-.7761,6.8685h-.0803l.7761-6.8685h.0803Z"/><path class="bl" d="M20.3704,8.439l-.776,6.8685h-.0804l.7761-6.8685h.0803Z"/><path class="bl" d="M20.4507,8.439l-.776,6.8685h-.0803l.776-6.8685h.0803Z"/><path class="d" d="M20.5311,8.439l-.7761,6.8685h-.0803l.776-6.8685h.0804Z"/><path class="y" d="M20.6113,8.439l-.7761,6.8685h-.0803l.7761-6.8685h.0803Z"/><path class="q" d="M20.6916,8.439l-.776,6.8685h-.0804l.7761-6.8685h.0803Z"/><path class="a`" d="M20.7718,8.439l-.776,6.8685h-.0803l.776-6.8685h.0803Z"/><path class="w" d="M20.8522,8.439l-.7761,6.8685h-.0803l.776-6.8685h.0804Z"/><path class="ah" d="M20.9325,8.439l-.7761,6.8685h-.0803l.7761-6.8685h.0803Z"/><path class="i" d="M21.0127,8.439l-.776,6.8685h-.0804l.7761-6.8685h.0803Z"/><path class="bp" d="M21.0931,8.439l-.7761,6.8685h-.0803l.776-6.8685h.0804Z"/><path class="au" d="M21.1734,8.439l-.7761,6.8685h-.0803l.7761-6.8685h.0803Z"/><path class="p" d="M21.2537,8.439l-.7761,6.8685h-.0803l.7761-6.8685h.0803Z"/><path class="ba" d="M21.3339,8.439l-.776,6.8685h-.0804l.7761-6.8685h.0803Z"/><path class="at" d="M21.4143,8.439l-.7761,6.8685h-.0803l.776-6.8685h.0804Z"/><path class="j" d="M21.4946,8.439l-.7761,6.8685h-.0803l.7761-6.8685h.0803Z"/><path class="bt" d="M21.5748,8.439l-.776,6.8685h-.0804l.7761-6.8685h.0803Z"/><path class="b`" d="M21.6551,8.439l-.776,6.8685h-.0803l.776-6.8685h.0803Z"/><path class="ar" d="M21.7355,8.439l-.7761,6.8685h-.0803l.776-6.8685h.0804Z"/><path class="o" d="M21.8157,8.439l-.7761,6.8685h-.0803l.7761-6.8685h.0803Z"/><path class="m" d="M21.896,8.439l-.776,6.8685h-.0804l.7761-6.8685h.0803Z"/><path class="al" d="M21.9762,8.439l-.776,6.8685h-.0803l.776-6.8685h.0803Z"/><path class="bj" d="M22.0566,8.439l-.7761,6.8685h-.0803l.776-6.8685h.0804Z"/><path class="f" d="M22.1369,8.439l-.7761,6.8685h-.0803l.7761-6.8685h.0803Z"/><path class="h" d="M22.2171,8.439l-.776,6.8685h-.0804l.7761-6.8685h.0803Z"/><path class="bh" d="M22.2974,8.439l-.776,6.8685h-.0803l.776-6.8685h.0803Z"/><path class="aw" d="M22.3778,8.439l-.7761,6.8685h-.0803l.776-6.8685h.0804Z"/><path class="aw" d="M22.4581,8.439l-.7761,6.8685h-.0803l.7761-6.8685h.0803Z"/><path class="bn" d="M22.5383,8.439l-.776,6.8685h-.0804l.7761-6.8685h.0803Z"/><path class="ad" d="M22.6186,8.439l-.776,6.8685h-.0803l.776-6.8685h.0803Z"/><path class="bf" d="M22.699,8.439l-.7761,6.8685h-.0803l.776-6.8685h.0804Z"/><path class="r" d="M22.7792,8.439l-.7761,6.8685h-.0803l.7761-6.8685h.0803Z"/><path class="t" d="M22.8595,8.439l-.776,6.8685h-.0804l.7761-6.8685h.0803Z"/><path class="bd" d="M22.9397,8.439l-.776,6.8685h-.0803l.776-6.8685h.0803Z"/><path class="bd" d="M23.0201,8.439l-.7761,6.8685h-.0803l.776-6.8685h.0804Z"/><path class="am" d="M23.1004,8.439l-.7761,6.8685h-.0803l.7761-6.8685h.0803Z"/><path class="bo" d="M23.1806,8.439l-.776,6.8685h-.0804l.7761-6.8685h.0803Z"/><path class="bo" d="M23.261,8.439l-.7761,6.8685h-.0803l.776-6.8685h.0804Z"/><path class="aq" d="M23.3413,8.439l-.7761,6.8685h-.0803l.7761-6.8685h.0803Z"/><path class="ae" d="M23.4216,8.439l-.7761,6.8685h-.0803l.7761-6.8685h.0803Z"/><path class="af" d="M23.5018,8.439l-.776,6.8685h-.0804l.7761-6.8685h.0803Z"/><path class="aj" d="M23.5822,8.439l-.7761,6.8685h-.0803l.776-6.8685h.0804Z"/><path class="x" d="M23.6625,8.439l-.7761,6.8685h-.0803l.7761-6.8685h.0803Z"/><path class="bk" d="M23.7427,8.439l-.776,6.8685h-.0804l.7761-6.8685h.0803Z"/><path class="bk" d="M25.0456,8.439l.0449,.005v6.8635h-2.1239l.776-6.8685h1.3029Z"/></g></g><g class="av"><g><path class="v" d="M33.0556,10.995l-.0548-1.1768h.0548v1.1768Z"/><path class="ac" d="M33.0556,12.2315l-.1124-2.4133h.0575l.0548,1.1768v1.2365Z"/><path class="ac" d="M33.0556,13.468l-.17-3.6498h.0577l.1124,2.4133v1.2365Z"/><path class="bw" d="M33.0157,13.8471l-.1876-4.0289h.0575l.17,3.6498v.3791h-.0399Z"/><path class="g" d="M32.958,13.8471l-.1876-4.0289h.0577l.1876,4.0289h-.0577Zm-.0575,0l-.1876-4.0289h.0575l.1876,4.0289h-.0575Z"/><path class="s" d="M32.8428,13.8471l-.1876-4.0289h.0577l.1876,4.0289h-.0577Z"/><path class="bs" d="M32.7853,13.8471l-.1876-4.0289h.0575l.1876,4.0289h-.0575Z"/><path class="bi" d="M32.7278,13.8471l-.1877-4.0289h.0577l.1876,4.0289h-.0575Z"/><path class="bi" d="M32.6701,13.8471l-.1876-4.0289h.0575l.1877,4.0289h-.0577Z"/><path class="k" d="M32.6126,13.8471l-.1877-4.0289h.0577l.1876,4.0289h-.0575Z"/><path class="ab" d="M32.5549,13.8471l-.1876-4.0289h.0575l.1877,4.0289h-.0577Z"/><path class="be" d="M32.4974,13.8471l-.1877-4.0289h.0577l.1876,4.0289h-.0575Z"/><path class="be" d="M32.4398,13.8471l-.1876-4.0289h.0575l.1877,4.0289h-.0577Z"/><path class="as" d="M32.3822,13.8471l-.1877-4.0289h.0577l.1876,4.0289h-.0575Z"/><path class="an" d="M32.3246,13.8471l-.1876-4.0289h.0575l.1877,4.0289h-.0577Z"/><path class="bc" d="M32.267,13.8471l-.1877-4.0289h.0577l.1876,4.0289h-.0575Z"/><path class="bb" d="M32.2094,13.8471l-.1876-4.0289h.0575l.1877,4.0289h-.0577Z"/><path class="bm" d="M32.1518,13.8471l-.1876-4.0289h.0575l.1876,4.0289h-.0575Z"/><path class="n" d="M32.0942,13.8471l-.1876-4.0289h.0577l.1876,4.0289h-.0577Z"/><path class="ax" d="M32.0367,13.8471l-.1876-4.0289h.0575l.1876,4.0289h-.0575Z"/><path class="l" d="M31.979,13.8471l-.1876-4.0289h.0577l.1876,4.0289h-.0577Z"/><path class="bv" d="M31.9215,13.8471l-.1876-4.0289h.0575l.1876,4.0289h-.0575Z"/><path class="bv" d="M31.8638,13.8471l-.1876-4.0289h.0577l.1876,4.0289h-.0577Z"/><path class="br" d="M31.8063,13.8471l-.1876-4.0289h.0575l.1876,4.0289h-.0575Z"/><path class="bl" d="M31.7486,13.8471l-.1876-4.0289h.0577l.1876,4.0289h-.0577Z"/><path class="bl" d="M31.6911,13.8471l-.1876-4.0289h.0575l.1876,4.0289h-.0575Z"/><path class="d" d="M31.6336,13.8471l-.1877-4.0289h.0577l.1876,4.0289h-.0575Z"/><path class="y" d="M31.5759,13.8471l-.1876-4.0289h.0575l.1877,4.0289h-.0577Z"/><path class="q" d="M31.5184,13.8471l-.1877-4.0289h.0577l.1876,4.0289h-.0575Z"/><path class="a`" d="M31.4607,13.8471l-.1876-4.0289h.0575l.1877,4.0289h-.0577Zm-.0575,0l-.1877-4.0289h.0577l.1876,4.0289h-.0575Z"/><path class="w" d="M31.3455,13.8471l-.1876-4.0289h.0575l.1877,4.0289h-.0577Z"/><path class="ah" d="M31.288,13.8471l-.1877-4.0289h.0577l.1876,4.0289h-.0575Z"/><path class="i" d="M31.2303,13.8471l-.1876-4.0289h.0575l.1877,4.0289h-.0577Z"/><path class="ak" d="M31.1728,13.8471l-.1877-4.0289h.0577l.1876,4.0289h-.0575Z"/><path class="u" d="M31.1151,13.8471l-.1876-4.0289h.0575l.1877,4.0289h-.0577Z"/><path class="bq" d="M31.0576,13.8471l-.1876-4.0289h.0575l.1876,4.0289h-.0575Z"/><path class="p" d="M31,13.8471l-.1876-4.0289h.0577l.1876,4.0289h-.0577Z"/><path class="ba" d="M30.9424,13.8471l-.1876-4.0289h.0575l.1876,4.0289h-.0575Z"/><path class="at" d="M30.8848,13.8471l-.1876-4.0289h.0577l.1876,4.0289h-.0577Z"/><path class="ao" d="M30.8272,13.8471l-.1876-4.0289h.0575l.1876,4.0289h-.0575Z"/><path class="j" d="M30.7696,13.8471l-.1876-4.0289h.0577l.1876,4.0289h-.0577Z"/><path class="bt" d="M30.7121,13.8471l-.1876-4.0289h.0575l.1876,4.0289h-.0575Z"/><path class="e" d="M30.6544,13.8471l-.1876-4.0289h.0577l.1876,4.0289h-.0577Z"/><path class="b`" d="M30.5969,13.8471l-.1876-4.0289h.0575l.1876,4.0289h-.0575Z"/><path class="ar" d="M30.5392,13.8471l-.1876-4.0289h.0577l.1876,4.0289h-.0577Z"/><path class="o" d="M30.4817,13.8471l-.1876-4.0289h.0575l.1876,4.0289h-.0575Z"/><path class="ay" d="M30.4241,13.8471l-.1877-4.0289h.0577l.1876,4.0289h-.0575Z"/><path class="m" d="M30.3665,13.8471l-.1876-4.0289h.0575l.1877,4.0289h-.0577Z"/><path class="ai" d="M30.309,13.8471l-.1877-4.0289h.0577l.1876,4.0289h-.0575Z"/><path class="al" d="M30.2513,13.8471l-.1876-4.0289h.0575l.1877,4.0289h-.0577Z"/><path class="bj" d="M30.1938,13.8471l-.1877-4.0289h.0577l.1876,4.0289h-.0575Z"/><path class="f" d="M30.1361,13.8471l-.1876-4.0289h.0575l.1877,4.0289h-.0577Z"/><path class="bx" d="M30.0786,13.8471l-.1877-4.0289h.0577l.1876,4.0289h-.0575Z"/><path class="ag" d="M30.0209,13.8471l-.1876-4.0289h.0575l.1877,4.0289h-.0577Z"/><path class="bh" d="M29.9634,13.8471l-.1877-4.0289h.0577l.1876,4.0289h-.0575Z"/><path class="aw" d="M29.9057,13.8471l-.1876-4.0289h.0575l.1877,4.0289h-.0577Z"/><path class="aw" d="M29.8482,13.8471l-.1876-4.0289h.0575l.1876,4.0289h-.0575Z"/><path class="aw" d="M29.7906,13.8471l-.1876-4.0289h.0577l.1876,4.0289h-.0577Z"/><path class="aa" d="M29.733,13.8471l-.1876-4.0289h.0575l.1876,4.0289h-.0575Z"/><path class="bn" d="M29.6754,13.8471l-.1876-4.0289h.0577l.1876,4.0289h-.0577Z"/><path class="ad" d="M29.6178,13.8471l-.1876-4.0289h.0575l.1876,4.0289h-.0575Z"/><path class="bf" d="M29.5602,13.8471l-.1876-4.0289h.0577l.1876,4.0289h-.0577Z"/><path class="bf" d="M29.5026,13.8471l-.1876-4.0289h.0575l.1876,4.0289h-.0575Z"/><path class="bf" d="M29.445,13.8471l-.1876-4.0289h.0577l.1876,4.0289h-.0577Z"/><path class="r" d="M29.3875,13.8471l-.1876-4.0289h.0575l.1876,4.0289h-.0575Zm-.0575,0l-.1877-4.0289h.0577l.1876,4.0289h-.0575Z"/><path class="t" d="M29.2723,13.8471l-.1876-4.0289h.0575l.1877,4.0289h-.0577Z"/><path class="bd" d="M29.2147,13.8471l-.1877-4.0289h.0577l.1876,4.0289h-.0575Z"/><path class="bd" d="M29.1571,13.8471l-.1302-2.7973v-1.2316h.0001l.1877,4.0289h-.0577Zm-.0575,0l-.0727-1.5608v-1.2365l.1302,2.7973h-.0575Z"/><path class="am" d="M29.0419,13.8471l-.015-.3242v-1.2365l.0727,1.5608h-.0577Z"/><path class="am" d="M29.0269,13.5228l.015,.3242h-.015v-.3242Z"/></g></g><path class="bu" d="M21.7945,9.7968l-2.072,2.0875,2.0874,2.072,1.766-.0065-1.8519-1.837,9.1443-.0339-.8014,.8068,.883-.0032,1.0361-1.0438-1.0438-1.0359-.883,.0032,.8075,.8011-9.1443,.0339,1.838-1.8507-1.7658,.0065Z"/></svg>