<?xml version="1.0" encoding="UTF-8"?><svg id="a" xmlns="http://www.w3.org/2000/svg" viewBox="0 0 86 32"><defs><style>.b{fill:#c33;}.c{fill:#264b82;}</style></defs><path class="c" d="M17.4425,8.95c0-.3666,.1156-.6674,.3468-.9039,.2312-.2378,.5308-.356,.896-.356h1.5661v1.1627h-1.1141c-.289,0-.4336,.1616-.4336,.4848v5.1659c0,.3652-.1182,.6674-.3495,.9039s-.5334,.3547-.9118,.3547h-.1918v.1944h.1918c.3784,0,.6806,.1182,.9118,.3547s.3495,.5387,.3495,.9039v5.1659c0,.3232,.1445,.4848,.4336,.4848h1.1141v1.1627h-1.5661c-.3652,0-.6648-.1196-.896-.356s-.3468-.5373-.3468-.9039v-5.5692c0-.3127-.1445-.4677-.4362-.4677h-.8224v-1.7447h.8224c.2917,0,.4362-.155,.4362-.4677v-5.5692Z"/><path class="b" d="M31.4713,21.51h-1.3558v-3.7785c0-.2798-.0631-.494-.1918-.6451-.1314-.1511-.3574-.226-.6806-.226h-3.5184v4.6496h-1.3558V10.2086h4.036c.5807,0,1.0878,.0841,1.5188,.2509,.4283,.1669,.7883,.3902,1.0721,.67,.2864,.2798,.5019,.6044,.6464,.9762s.2181,.762,.2181,1.1706v.4848c0,.4191-.1156,.8382-.3468,1.2586-.2312,.4191-.5912,.7423-1.0747,.9683v.1944c.3232,.0539,.5754,.1826,.7594,.3876,.1839,.2036,.2733,.4953,.2733,.8711v4.0689Zm-5.7466-5.9095h2.5199c.762,0,1.3296-.1629,1.7027-.4914,.3705-.3285,.5571-.8106,.5571-1.4452v-.2904c0-.5715-.1866-1.0313-.5571-1.3808-.3731-.3495-.9407-.5242-1.7027-.5242h-2.5199v4.1319Z"/><path class="b" d="M34.5562,10.2086h6.8449v1.2599h-5.4891v3.7443h5.3919v1.2599h-5.3919v3.7772h5.5863v1.2599h-6.9422V10.2086Z"/><path class="b" d="M50.6845,13.4695c0-.3652-.0736-.6884-.2181-.9683-.1471-.2798-.3416-.5111-.5912-.6937-.247-.1839-.5308-.3232-.854-.4204s-.6622-.1445-1.0169-.1445c-.3127,0-.6096,.0394-.8881,.1209-.2812,.0801-.5308,.1958-.7515,.3468s-.3941,.3363-.5255,.5571c-.1288,.2207-.1918,.4756-.1918,.7673v.0959c0,.3127,.0631,.5794,.1918,.8001,.1314,.2207,.3206,.4086,.5728,.5649,.2549,.155,.5676,.2851,.9459,.3876,.3757,.1012,.8172,.1905,1.3243,.2654,1.1824,.1839,2.0548,.5308,2.6145,1.0418s.8408,1.1969,.8408,2.0587v.1931c0,.4848-.0841,.9289-.2523,1.3322-.1655,.4033-.4125,.7502-.741,1.0405-.3285,.2917-.7357,.5176-1.2192,.6779-.4861,.1616-1.0458,.2431-1.679,.2431-.7226,0-1.3585-.1051-1.9129-.3153s-1.0169-.5006-1.39-.8711c-.3705-.3718-.6516-.808-.8461-1.3086s-.2917-1.0458-.2917-1.6383v-.4848h1.3558v.3876c0,.9906,.2733,1.7329,.8172,2.2282,.5413,.4953,1.298,.7423,2.2676,.7423,.8382,0,1.4715-.1852,1.8971-.5571,.4257-.3705,.6359-.8632,.6359-1.4767v-.0972c0-.5912-.2181-1.0432-.6516-1.3558-.4362-.3114-1.1456-.5373-2.1231-.6779-.5702-.0749-1.0852-.1905-1.5424-.3468s-.8487-.3613-1.1719-.6135c-.3206-.2536-.5702-.5571-.741-.9118-.1734-.356-.2575-.7751-.2575-1.2599v-.1931c0-.4414,.0893-.8448,.2733-1.2113,.1839-.3652,.4388-.6832,.7673-.9525s.72-.4756,1.1772-.6214,.9617-.2181,1.5109-.2181c.6333,0,1.2034,.092,1.7027,.2746s.9223,.4283,1.2665,.7344c.3442,.3074,.607,.6674,.783,1.0813,.1787,.4152,.268,.8487,.268,1.3007v.6779h-1.3558v-.582Z"/><path class="b" d="M54.0898,10.2086h7.9433v1.2599h-3.2924v10.0414h-1.3558V11.4685h-3.295v-1.2599Z"/><path class="c" d="M68.5549,14.5192c0,.3127,.1471,.4677,.4362,.4677h.8251v1.7447h-.8251c-.289,0-.4362,.155-.4362,.4677v5.5692c0,.3666-.1156,.6674-.3468,.9039s-.5308,.356-.896,.356h-1.5661v-1.1627h1.1141c.2917,0,.4362-.1616,.4362-.4848v-5.1659c0-.3652,.1156-.6674,.3468-.9039s.536-.3547,.9118-.3547h.1944v-.1944h-.1944c-.3757,0-.6806-.1182-.9118-.3547s-.3468-.5387-.3468-.9039v-5.1659c0-.3232-.1445-.4848-.4362-.4848h-1.1141v-1.1627h1.5661c.3652,0,.6648,.1182,.896,.356,.2312,.2365,.3468,.5373,.3468,.9039v5.5692Z"/></svg>