<?xml version="1.0" encoding="UTF-8"?><svg id="a" xmlns="http://www.w3.org/2000/svg" viewBox="0 0 86 32"><defs><style>.b{fill:#369;}.c{fill:#396;}</style></defs><path class="b" d="M17.4432,8.95c0-.3666,.1156-.6674,.3468-.9039,.2312-.2378,.5308-.356,.896-.356h1.5661v1.1627h-1.1141c-.2904,0-.4349,.1616-.4349,.4848v5.1659c0,.3652-.1169,.6674-.3482,.9039s-.5347,.3547-.9118,.3547h-.1931v.1944h.1931c.3771,0,.6806,.1182,.9118,.3547s.3482,.5387,.3482,.9039v5.1659c0,.3232,.1445,.4848,.4349,.4848h1.1141v1.1627h-1.5661c-.3652,0-.6648-.1196-.896-.356s-.3468-.5373-.3468-.9039v-5.5692c0-.3127-.1458-.4677-.4362-.4677h-.8224v-1.7447h.8224c.2904,0,.4362-.155,.4362-.4677v-5.5692Z"/><path class="c" d="M30.6009,13.4695c0-.3652-.0736-.6884-.2181-.9683-.1458-.2798-.3416-.5111-.5899-.6937-.247-.1839-.5321-.3232-.8553-.4204s-.6622-.1445-1.0169-.1445c-.3127,0-.6083,.0394-.8881,.1209-.2798,.0801-.5308,.1958-.7502,.3468-.2207,.1511-.3955,.3363-.5255,.5571-.1288,.2207-.1931,.4756-.1931,.7673v.0959c0,.3127,.0644,.5794,.1931,.8001,.1301,.2207,.3206,.4086,.5728,.5649,.2536,.155,.5676,.2851,.9446,.3876,.3771,.1012,.8185,.1905,1.3243,.2654,1.1837,.1839,2.0561,.5308,2.6158,1.0418,.5584,.5111,.8395,1.1969,.8395,2.0587v.1931c0,.4848-.0841,.9289-.2509,1.3322s-.4138,.7502-.7423,1.0405c-.3285,.2917-.7344,.5176-1.2192,.6779-.4848,.1616-1.0445,.2431-1.679,.2431-.7213,0-1.3585-.1051-1.9129-.3153s-1.0169-.5006-1.3887-.8711c-.3705-.3718-.653-.808-.8474-1.3086-.1931-.5006-.2904-1.0458-.2904-1.6383v-.4848h1.3558v.3876c0,.9906,.272,1.7329,.8159,2.2282,.5426,.4953,1.2994,.7423,2.2676,.7423,.8395,0,1.4715-.1852,1.8971-.5571,.4257-.3705,.6372-.8632,.6372-1.4767v-.0972c0-.5912-.2181-1.0432-.653-1.3558-.4362-.3114-1.1443-.5373-2.1231-.6779-.5702-.0749-1.0852-.1905-1.5424-.3468s-.8474-.3613-1.1706-.6135c-.3219-.2536-.5702-.5571-.7423-.9118-.1721-.356-.2575-.7751-.2575-1.2599v-.1931c0-.4414,.0907-.8448,.2733-1.2113,.1839-.3652,.4388-.6832,.7673-.9525s.7213-.4756,1.1785-.6214,.9604-.2181,1.5096-.2181c.6346,0,1.2034,.092,1.704,.2746,.4992,.1826,.9223,.4283,1.2665,.7344,.3442,.3074,.6057,.6674,.783,1.0813,.1774,.4152,.2667,.8487,.2667,1.3007v.6779h-1.3558v-.582Z"/><path class="c" d="M34.0063,14.5993c0-1.4623,.3495-2.5987,1.0497-3.4054,.6989-.808,1.6738-1.2113,2.9219-1.2113s2.223,.4033,2.9219,1.2113c.7003,.8067,1.0497,1.9431,1.0497,3.4054v2.5186c0,1.5069-.3495,2.6539-1.0497,3.4395-.6989,.7857-1.6738,1.1785-2.9219,1.1785s-2.223-.3928-2.9219-1.1785c-.7003-.7857-1.0497-1.9326-1.0497-3.4395v-2.5186Zm3.9716,5.8767c.8724,0,1.5253-.2982,1.9615-.896,.4362-.5965,.6543-1.4491,.6543-2.558v-2.3254c0-1.0327-.2181-1.8669-.6543-2.5015-.4362-.6359-1.0891-.9525-1.9615-.9525-.8711,0-1.5253,.3166-1.9615,.9525-.4362,.6346-.6543,1.4688-.6543,2.5015v2.3254c0,1.1089,.2181,1.9615,.6543,2.558,.4362,.5978,1.0905,.896,1.9615,.896Z"/><path class="c" d="M50.4407,18.701h-4.8427l-.8238,2.8089h-1.4531l3.4225-11.3014h2.5514l3.4225,11.3014h-1.4531l-.8238-2.8089Zm-2.5186-7.9104l-1.9523,6.6505h4.1004l-1.9536-6.6505h-.1944Z"/><path class="c" d="M55.851,16.8604v4.6496h-1.3572V10.2086h4.036c.582,0,1.0878,.0841,1.5188,.2509,.4296,.1669,.7883,.3902,1.0734,.67s.5006,.6044,.6451,.9762c.1458,.3718,.2181,.762,.2181,1.1706v.4848c0,.4086-.0723,.8014-.2181,1.1785-.1445,.3757-.3626,.7068-.653,.9919-.2917,.2851-.6516,.5111-1.0826,.6779-.4296,.1669-.9302,.2509-1.5017,.2509h-2.6789Zm0-1.2599h2.5186c1.5056,0,2.2597-.6451,2.2597-1.9366v-.2904c0-.5715-.1852-1.0313-.5571-1.3808s-.9394-.5242-1.7027-.5242h-2.5186v4.1319Z"/><path class="b" d="M68.5555,14.5192c0,.3127,.1458,.4677,.4362,.4677h.8238v1.7447h-.8238c-.2904,0-.4362,.155-.4362,.4677v5.5692c0,.3666-.1156,.6674-.3468,.9039s-.5308,.356-.896,.356h-1.5661v-1.1627h1.1141c.2904,0,.4362-.1616,.4362-.4848v-5.1659c0-.3652,.1156-.6674,.3468-.9039s.5347-.3547,.9118-.3547h.1944v-.1944h-.1944c-.3771,0-.6806-.1182-.9118-.3547s-.3468-.5387-.3468-.9039v-5.1659c0-.3232-.1458-.4848-.4362-.4848h-1.1141v-1.1627h1.5661c.3652,0,.6648,.1182,.896,.356,.2312,.2365,.3468,.5373,.3468,.9039v5.5692Z"/></svg>