<?xml version="1.0" encoding="UTF-8"?><svg id="a" xmlns="http://www.w3.org/2000/svg" viewBox="0 0 86 32"><defs><style>.b{fill:#396;}.c{fill:#f7931e;}</style></defs><path class="b" d="M2.3203,8.1724c0-.3659,.1156-.6674,.3469-.9039,.2312-.2372,.5308-.3554,.8961-.3554h1.5661v1.1621h-1.1142c-.2904,0-.4349,.1616-.4349,.4848v5.1661c0,.3659-.1169,.6674-.3482,.9039-.2312,.2372-.5347,.3554-.9118,.3554h-.1931v.1938h.1931c.3771,0,.6806,.1182,.9118,.3554,.2312,.2365,.3482,.538,.3482,.9039v5.1654c0,.3232,.1445,.4848,.4349,.4848h1.1142v1.1628h-1.5661c-.3653,0-.6648-.1196-.8961-.3561s-.3469-.5374-.3469-.9039v-5.5695c0-.312-.1458-.4677-.4362-.4677h-.8225v-1.7441h.8225c.2904,0,.4362-.1557,.4362-.4677v-5.5701Z"/><path class="c" d="M15.4786,12.6927c0-.3659-.0736-.6885-.2181-.9683-.1458-.2799-.3416-.5111-.5899-.6944-.247-.1833-.5321-.3232-.8553-.4198-.3232-.0972-.6622-.1452-1.0169-.1452-.3127,0-.6083,.0401-.8882,.1209s-.5308,.1964-.7502,.3469c-.2207,.1511-.3955,.337-.5255,.5571-.1288,.2207-.1931,.4763-.1931,.7673v.0966c0,.312,.0644,.5788,.1931,.7995,.1301,.2207,.3206,.4086,.5728,.565,.2536,.1557,.5676,.2851,.9447,.3876,.3771,.1018,.8185,.1912,1.3244,.2661,1.1838,.1833,2.0562,.5301,2.6159,1.0412,.5584,.5117,.8396,1.1976,.8396,2.0588v.1931c0,.4848-.0841,.9289-.2509,1.3323s-.4139,.7502-.7423,1.0406c-.3285,.2917-.7344,.5177-1.2193,.678-.4848,.1616-1.0445,.2431-1.6791,.2431-.7213,0-1.3585-.1051-1.913-.3153s-1.0169-.5006-1.3887-.8711c-.3705-.3718-.653-.808-.8474-1.3086-.1931-.5006-.2904-1.0458-.2904-1.6377v-.4848h1.3559v.3876c0,.99,.272,1.7323,.8159,2.2276,.5426,.4953,1.2994,.7423,2.2677,.7423,.8396,0,1.4715-.1853,1.8972-.5571,.4257-.3705,.6372-.8632,.6372-1.4768v-.0972c0-.5912-.2181-1.0432-.653-1.3552-.4362-.312-1.1444-.538-2.1232-.678-.5702-.0755-1.0852-.1912-1.5425-.3475-.4572-.1557-.8474-.3607-1.1706-.6136-.3219-.2529-.5702-.5571-.7423-.9118-.1721-.3554-.2575-.7752-.2575-1.2593v-.1938c0-.4415,.0907-.8448,.2733-1.2107,.1839-.3659,.4388-.6839,.7673-.9525,.3285-.2693,.7213-.4763,1.1785-.6215,.4572-.1458,.9604-.2181,1.5096-.2181,.6346,0,1.2035,.0913,1.7041,.2746,.4993,.1826,.9223,.4277,1.2666,.7344s.6057,.6674,.7831,1.0813c.1774,.4145,.2667,.8481,.2667,1.3001v.678h-1.3559v-.5814Z"/><path class="c" d="M26.473,20.7329h-2.4701l-1.0498-10.7198h-.1945l-1.0485,10.7198h-2.4701l-1.147-11.3012h1.2271l1.0813,10.7191h.1945l1.0169-10.7191h2.4858l1.0169,10.7191h.1945l1.0813-10.7191h1.2271l-1.1457,11.3012Z"/><path class="c" d="M35.3192,17.9238h-4.8429l-.8238,2.809h-1.4531l3.4226-11.3012h2.5515l3.4226,11.3012h-1.4531l-.8238-2.809Zm-2.5187-7.9107l-1.9524,6.6514h4.1006l-1.9537-6.6514h-.1945Z"/><path class="c" d="M41.8596,15.3079h5.0373v5.4249h-1.26v-1.3559h-.1931c-.1839,.473-.5058,.8553-.9696,1.1457-.4625,.2904-.9998,.4362-1.6134,.4362-1.2166,0-2.1718-.3928-2.8655-1.1785-.695-.7857-1.0419-1.9327-1.0419-3.439v-2.5187c0-1.463,.3495-2.5988,1.0498-3.4062,.699-.8074,1.6725-1.2107,2.922-1.2107,.6451,0,1.2153,.1045,1.7106,.3147,.4953,.2096,.9105,.5006,1.2442,.8717,.3324,.3712,.586,.8074,.7581,1.3079s.2588,1.036,.2588,1.6062v.1938h-1.3572v-.1938c0-.3659-.0499-.7207-.1524-1.0655-.1025-.3442-.2588-.6484-.469-.9125-.2089-.2634-.4782-.473-.8067-.6293-.3285-.1557-.7239-.2339-1.1864-.2339-.8724,0-1.5254,.3173-1.9616,.9525s-.6543,1.4689-.6543,2.5022v2.3249c0,1.1089,.2181,1.9616,.6543,2.5581,.4362,.5978,1.0997,.8961,1.9931,.8961,.808,0,1.44-.2575,1.8972-.7752,.4572-.5163,.6858-1.2363,.6858-2.1626v-.1938h-3.6801v-1.2593Z"/><path class="c" d="M51.9015,15.3079h5.0373v5.4249h-1.26v-1.3559h-.1931c-.1839,.473-.5058,.8553-.9696,1.1457-.4625,.2904-.9998,.4362-1.6134,.4362-1.2166,0-2.1718-.3928-2.8655-1.1785-.695-.7857-1.0419-1.9327-1.0419-3.439v-2.5187c0-1.463,.3495-2.5988,1.0498-3.4062,.699-.8074,1.6725-1.2107,2.922-1.2107,.6451,0,1.2153,.1045,1.7106,.3147,.4953,.2096,.9105,.5006,1.2442,.8717,.3324,.3712,.586,.8074,.7581,1.3079s.2588,1.036,.2588,1.6062v.1938h-1.3572v-.1938c0-.3659-.0499-.7207-.1524-1.0655-.1025-.3442-.2588-.6484-.469-.9125-.2089-.2634-.4782-.473-.8067-.6293-.3285-.1557-.7239-.2339-1.1864-.2339-.8724,0-1.5254,.3173-1.9616,.9525s-.6543,1.4689-.6543,2.5022v2.3249c0,1.1089,.2181,1.9616,.6543,2.5581,.4362,.5978,1.0997,.8961,1.9931,.8961,.808,0,1.44-.2575,1.8972-.7752,.4572-.5163,.6858-1.2363,.6858-2.1626v-.1938h-3.6801v-1.2593Z"/><path class="c" d="M59.602,9.4317h6.8452v1.2593h-5.4893v3.7452h5.3921v1.2593h-5.3921v3.7773h5.5865v1.26h-6.9424V9.4317Z"/><path class="c" d="M76.602,20.7329h-1.3559v-3.778c0-.2799-.0644-.4947-.1931-.6458-.1301-.1504-.3561-.226-.6793-.226h-3.5185v4.6497h-1.3572V9.4317h4.0362c.582,0,1.0879,.0834,1.5188,.2503,.4296,.1669,.7883,.3902,1.0734,.6701s.5006,.605,.6451,.9762c.1458,.3718,.2181,.762,.2181,1.1706v.4848c0,.4191-.1156,.8389-.3469,1.2587s-.5899,.743-1.0734,.969v.1938c.3232,.0539,.5755,.1833,.7581,.3876,.1839,.2043,.2746,.4953,.2746,.8717v4.0684Zm-5.7468-5.9091h2.5187c.7634,0,1.3309-.1636,1.7028-.492s.5571-.81,.5571-1.4452v-.2904c0-.5709-.1853-1.0307-.5571-1.3809-.3718-.3495-.9394-.5242-1.7028-.5242h-2.5187v4.1327Z"/><path class="b" d="M83.5602,13.7425c0,.312,.1458,.4677,.4362,.4677h.8238v1.7441h-.8238c-.2904,0-.4362,.1557-.4362,.4677v5.5695c0,.3666-.1156,.6674-.3469,.9039s-.5308,.3561-.8961,.3561h-1.5661v-1.1628h1.1142c.2904,0,.4362-.1616,.4362-.4848v-5.1654c0-.3659,.1156-.6674,.3469-.9039,.2312-.2372,.5347-.3554,.9118-.3554h.1945v-.1938h-.1945c-.3771,0-.6806-.1182-.9118-.3554-.2312-.2365-.3469-.538-.3469-.9039v-5.1661c0-.3232-.1458-.4848-.4362-.4848h-1.1142v-1.1621h1.5661c.3653,0,.6648,.1182,.8961,.3554,.2312,.2365,.3469,.538,.3469,.9039v5.5701Z"/></svg>